<?xml version="1.0" standalone="no"?><!DOCTYPE svg PUBLIC "-//W3C//DTD SVG 1.1//EN" "http://www.w3.org/Graphics/SVG/1.1/DTD/svg11.dtd"><svg t="1719363097358" class="icon" viewBox="0 0 1024 1024" version="1.1" xmlns="http://www.w3.org/2000/svg" p-id="1512" xmlns:xlink="http://www.w3.org/1999/xlink" width="200" height="200"><path d="M0 0h1024v1024H0z" fill="#F55F5F" p-id="1513"></path><path d="M273.0752 204.8H742.4c23.552 0 42.6752 19.0976 42.6752 42.6752v554.6496c0 23.552-19.1232 42.6752-42.6752 42.6752H273.0752C249.5232 844.8 230.4 825.7024 230.4 802.1248V247.4752C230.4 223.9232 249.4976 204.8 273.0752 204.8z m272 106.6752a16 16 0 1 0 0 32h138.6496a16 16 0 0 0 0-32h-138.6496z m0 128a16 16 0 1 0 0 32h138.6496a16 16 0 0 0 0-32h-138.6496z m-213.3504 128a16 16 0 0 0 0 32h352a16 16 0 0 0 0-32h-352z m0 128a16 16 0 0 0 0 32h352a16 16 0 0 0 0-32h-352z m21.3504-346.6752h96v96h-96v-96z m-16-32a16 16 0 0 0-16 16v128c0 8.832 7.168 16 16 16h128c8.832 0 16-7.168 16-16v-128a16 16 0 0 0-16-16h-128z" fill="#FFFFFF" p-id="1514"></path></svg>